<svg width="125" height="15" viewBox="0 0 125 15" fill="none" xmlns="http://www.w3.org/2000/svg">
<path d="M2.71204 7.32386C3.69072 7.32386 4.716 7.24757 5.69468 7.17128C6.11411 7.17128 6.48694 7.09499 6.90637 7.09499C8.67731 6.94241 10.4482 6.78983 12.2192 6.63725C14.363 6.48467 16.4601 6.2558 18.6039 6.10322C21.6331 5.79806 24.6624 5.56918 27.6916 5.26402C28.3907 5.18773 29.0897 5.18773 29.7888 5.11144C31.5597 4.95886 33.3306 4.80628 35.1016 4.72999C36.8725 4.57741 38.6434 4.42483 40.4144 4.34854C41.1134 4.27225 41.8125 4.19596 42.5116 4.19596C45.3078 4.04338 48.1506 3.8908 50.9468 3.73822C52.6711 3.66193 54.3955 3.58564 56.1664 3.43306C56.8655 3.43306 57.5179 3.35677 58.217 3.35677C60.92 3.28048 63.6696 3.20419 66.3726 3.1279C69.0756 3.05161 71.732 2.97532 74.435 2.89903C75.1341 2.89903 75.8332 2.89903 76.5788 2.89903C78.3497 2.89903 80.0741 2.89903 81.845 2.89903C84.5946 2.89903 87.2976 2.89903 90.0473 2.82274C90.9327 2.82274 91.8182 2.82274 92.7037 2.82274C94.5678 2.82274 96.432 2.82274 98.2961 2.82274C98.4359 2.82274 98.6223 2.82274 98.7621 2.82274C94.5678 2.89903 90.3269 2.97532 86.1326 3.1279C84.3616 3.20419 82.6373 3.20419 80.8663 3.28048C80.1207 3.28048 79.3284 3.28048 78.5828 3.35677C76.0196 3.43306 73.503 3.58564 70.9398 3.66193C68.0037 3.81451 65.0677 3.8908 62.1317 4.04338C61.619 4.04338 61.153 4.11967 60.6404 4.11967C59.0558 4.27225 57.5179 4.34854 55.9334 4.50112C52.7644 4.72999 49.5953 4.95886 46.4263 5.18773C45.9602 5.18773 45.4942 5.26402 45.0281 5.34031C43.4902 5.49289 41.9057 5.72177 40.3678 5.87435C37.5716 6.17951 34.8219 6.48467 32.0257 6.78983C31.2801 6.86612 30.4878 7.0187 29.7422 7.09499C27.9712 7.32386 26.2003 7.55273 24.4293 7.85789C22.1924 8.16305 19.9088 8.46821 17.6718 8.77337C14.5494 9.23111 11.3803 9.68886 8.25788 10.1466C7.51222 10.2229 6.76656 10.3755 5.9743 10.4518C4.62279 10.6806 3.27129 10.9095 1.91978 11.1384C1.77997 11.1384 1.64016 11.2909 1.64016 11.5961C1.64016 11.825 1.77997 12.0539 1.91978 12.0539C2.43242 12.0539 2.89846 12.1301 3.4111 12.1301C3.31789 12.5116 3.27129 12.7405 3.27129 12.9693C3.27129 13.8085 3.69072 14.5714 4.24996 14.5714C8.11807 14.19 11.9396 13.7322 15.8077 13.4271C19.1631 13.1982 22.5186 12.893 25.8741 12.6642C29.5557 12.359 33.284 12.0539 36.9657 11.825C38.1308 11.7487 39.2959 11.6724 40.461 11.5198C40.7872 11.5198 41.1134 11.4435 41.4863 11.4435C47.4515 11.2147 53.4168 10.9095 59.3821 10.6806C62.5511 10.528 65.7668 10.3755 68.9358 10.2992C70.1009 10.2229 71.2194 10.2229 72.3845 10.1466C78.4896 9.99402 84.5946 9.84144 90.6997 9.68886C93.3095 9.61257 95.9193 9.53628 98.5291 9.45998C100.766 9.38369 103.003 9.38369 105.24 9.23111C107.104 9.15482 108.922 9.00224 110.786 8.92595C111.718 8.84966 112.65 8.84966 113.535 8.77337C115.633 8.5445 117.73 8.31563 119.827 8.08676C119.687 8.39192 119.687 8.84966 119.734 9.15482C119.78 9.53628 119.92 9.84144 120.153 9.99402C120.34 10.1466 120.619 10.2992 120.806 10.1466C121.272 9.84144 121.738 9.53628 122.157 9.23111C122.157 9.23111 122.157 9.23111 122.111 9.23111C122.157 9.23111 122.157 9.15482 122.204 9.15482C122.25 9.15482 122.297 9.07853 122.297 9.07853H122.25C122.483 8.92595 122.716 8.77337 122.996 8.5445C123.229 8.39192 123.509 8.16305 123.742 8.01047C124.021 7.7816 124.254 7.55273 124.534 7.32386C124.814 7.09499 125 6.48467 125 5.95064C125 5.64547 124.953 5.4166 124.86 5.11144C124.767 4.80628 124.534 4.42483 124.301 4.34854C124.068 4.27225 123.835 4.19596 123.602 4.19596C123.555 4.19596 123.509 4.19596 123.462 4.19596C123.322 4.19596 123.136 4.19596 122.996 4.27225C122.623 4.34854 122.297 4.42483 121.924 4.42483C121.645 4.42483 121.365 4.50112 121.039 4.50112C120.246 4.57741 119.501 4.6537 118.709 4.80628C118.522 4.80628 118.289 4.88257 118.103 4.88257C118.196 4.72999 118.242 4.57741 118.242 4.42483C118.289 4.27225 118.289 4.11967 118.289 3.96709C118.289 3.8908 118.289 3.73822 118.336 3.66193C118.336 3.50935 118.336 3.35677 118.289 3.28048C118.289 3.28048 118.336 3.28048 118.336 3.20419C118.475 3.05161 118.615 2.89903 118.709 2.59387C118.802 2.365 118.848 2.05984 118.848 1.75467C118.848 1.44951 118.802 1.22064 118.709 0.915483C118.662 0.839192 118.615 0.686612 118.569 0.610322C118.429 0.381451 118.289 0.305161 118.149 0.228871C117.87 0.0762902 117.543 0 117.217 0C116.938 0 116.705 0 116.425 0C116.052 0 115.679 0 115.306 0C114.794 0 114.235 0 113.722 0C112.324 0 110.926 0 109.528 0C108.223 0 106.871 0 105.566 0C104.355 0 103.189 0 101.978 0C97.1776 0 92.4241 0.0762902 87.6239 0.15258C84.0354 0.228871 80.4469 0.305161 76.8584 0.305161C75.2739 0.305161 73.6428 0.381451 72.0583 0.457741C68.4698 0.610322 64.8813 0.686612 61.2928 0.839192C60.2675 0.839192 59.2423 0.915483 58.217 0.915483C57.6111 0.915483 57.0519 0.991773 56.446 0.991773C52.9042 1.22064 49.3623 1.44951 45.8204 1.67838C44.7485 1.75467 43.6766 1.83096 42.5582 1.90726C41.9523 1.90726 41.3465 1.98355 40.7406 2.05984C37.1987 2.365 33.7035 2.67016 30.1616 2.97532C28.344 3.1279 26.5265 3.28048 24.709 3.50935C21.5865 3.81451 18.4641 4.11967 15.3882 4.50112C12.6852 4.80628 9.98221 5.03515 7.2792 5.26402C6.85977 5.34031 6.44033 5.34031 5.9743 5.4166C5.27524 5.49289 4.57619 5.49289 3.87713 5.56918C3.27129 5.87435 2.61884 5.87435 2.01299 5.87435C1.96639 5.56918 1.77997 5.34031 1.64016 5.4166C1.22073 5.4166 0.847898 5.49289 0.428465 5.56918C0.242051 5.64548 0.0556361 5.79806 0.00903247 6.10322C-0.0375712 6.48467 0.10224 6.86612 0.288654 6.94241C0.475069 7.0187 0.661483 7.09499 0.847898 7.17128C1.03431 7.24757 1.17412 7.24757 1.36054 7.24757C1.82657 7.32386 2.24601 7.32386 2.71204 7.32386ZM111.765 4.88257C112.324 4.88257 112.93 4.88257 113.489 4.88257C113.536 5.11144 113.629 5.26402 113.722 5.4166C113.489 5.4166 113.256 5.49289 113.069 5.49289C112.65 5.49289 112.231 5.56918 111.811 5.56918C109.947 5.64548 108.129 5.79806 106.265 5.87435C105.426 5.95064 104.588 6.02693 103.749 6.02693C102.444 6.02693 101.092 6.10322 99.7874 6.10322C96.7582 6.17951 93.7756 6.2558 90.7463 6.33209C84.8743 6.48467 79.0488 6.63725 73.1768 6.78983C68.9824 6.86612 64.7881 7.09499 60.5938 7.32386C54.3023 7.62902 47.9642 7.85789 41.6727 8.16305C40.4144 8.23934 39.1561 8.31563 37.8978 8.46821C34.3093 8.77337 30.7208 9.00224 27.1324 9.3074C23.6371 9.61257 20.0952 9.84144 16.5999 10.1466C16.2737 10.1466 15.9475 10.2229 15.6213 10.2229C16.5533 10.0703 17.532 9.99402 18.4641 9.84144C21.7729 9.45999 25.0818 9.00224 28.3907 8.62079C29.5557 8.46821 30.7208 8.31563 31.8393 8.16305C32.4452 8.08676 33.051 8.01047 33.6103 8.01047C37.1055 7.70531 40.5542 7.32386 44.0029 7.0187C44.6553 6.94241 45.3544 6.86612 46.0068 6.78983C46.9855 6.71354 47.9642 6.63725 48.8963 6.63725C52.4381 6.40838 55.98 6.17951 59.5219 5.95064C60.3141 5.87435 61.1064 5.87435 61.8521 5.79806C62.0385 5.79806 62.2715 5.79806 62.4579 5.79806C63.0172 5.79806 63.5764 5.79806 64.089 5.72177C67.6309 5.56918 71.2194 5.49289 74.7613 5.34031C76.3924 5.26402 78.0235 5.18773 79.6546 5.18773C84.9209 5.11144 90.2337 5.03515 95.4999 4.95886C100.999 4.95886 106.405 4.88257 111.765 4.88257Z" fill="white"/>
</svg>
