<svg width="81" height="10" viewBox="0 0 81 10" fill="none" xmlns="http://www.w3.org/2000/svg">
<g clip-path="url(#clip0_463_360)">
<path d="M0.757404 4.06881C1.39159 4.06881 2.05597 4.02643 2.69015 3.98404C2.96194 3.98404 3.20354 3.94166 3.47533 3.94166C4.6229 3.85689 5.77046 3.77213 6.91803 3.68736C8.30719 3.60259 9.66616 3.47544 11.0553 3.39068C13.0183 3.22114 14.9812 3.09399 16.9442 2.92446C17.3971 2.88207 17.8501 2.88207 18.3031 2.83969C19.4507 2.75492 20.5983 2.67016 21.7458 2.62777C22.8934 2.54301 24.041 2.45824 25.1885 2.41586C25.6415 2.37347 26.0945 2.33109 26.5475 2.33109C28.3594 2.24632 30.2016 2.16156 32.0135 2.07679C33.1309 2.03441 34.2483 1.99202 35.3958 1.90725C35.8488 1.90725 36.2716 1.86487 36.7246 1.86487C38.4762 1.82249 40.2579 1.7801 42.0095 1.73772C43.761 1.69534 45.4824 1.65295 47.2339 1.61057C47.6869 1.61057 48.1399 1.61057 48.6231 1.61057C49.7706 1.61057 50.888 1.61057 52.0356 1.61057C53.8173 1.61057 55.5689 1.61057 57.3506 1.56819C57.9244 1.56819 58.4982 1.56819 59.072 1.56819C60.2799 1.56819 61.4879 1.56819 62.6959 1.56819C62.7865 1.56819 62.9073 1.56819 62.9979 1.56819C60.2799 1.61057 57.5318 1.65295 54.8139 1.73772C53.6663 1.7801 52.549 1.7801 51.4014 1.82249C50.9182 1.82249 50.4048 1.82249 49.9216 1.86487C48.2607 1.90725 46.6299 1.99202 44.969 2.03441C43.0664 2.11917 41.1639 2.16156 39.2613 2.24632C38.9291 2.24632 38.6271 2.28871 38.295 2.28871C37.2682 2.37347 36.2716 2.41586 35.2448 2.50062C33.1913 2.62777 31.1378 2.75492 29.0842 2.88207C28.7822 2.88207 28.4802 2.92446 28.1782 2.96684C27.1817 3.05161 26.1549 3.17876 25.1583 3.26352C23.3464 3.43306 21.5646 3.60259 19.7527 3.77213C19.2695 3.81451 18.7561 3.89928 18.2729 3.94166C17.1253 4.06881 15.9778 4.19596 14.8302 4.36549C13.3807 4.53503 11.9009 4.70456 10.4513 4.8741C8.42799 5.1284 6.37445 5.3827 4.3511 5.637C3.86792 5.67938 3.38473 5.76415 2.87135 5.80653C1.99557 5.93368 1.11979 6.06083 0.244019 6.18798C0.153421 6.18798 0.0628236 6.27275 0.0628236 6.44228C0.0628236 6.56943 0.153421 6.69658 0.244019 6.69658C0.576209 6.69658 0.878201 6.73897 1.21039 6.73897C1.14999 6.95088 1.11979 7.07803 1.11979 7.20519C1.11979 7.6714 1.39159 8.09524 1.75398 8.09524C4.26051 7.88332 6.73684 7.62902 9.24337 7.45949C11.4177 7.33234 13.592 7.1628 15.7664 7.03565C18.1521 6.86612 20.5681 6.69658 22.9538 6.56943C23.7088 6.52705 24.4637 6.48467 25.2187 6.3999C25.4301 6.3999 25.6415 6.35752 25.8831 6.35752C29.7486 6.23037 33.6141 6.06083 37.4796 5.93368C39.5331 5.84891 41.6169 5.76415 43.6704 5.72176C44.4254 5.67938 45.1502 5.67938 45.9051 5.637C49.8612 5.55223 53.8173 5.46746 57.7734 5.3827C59.4646 5.34031 61.1557 5.29793 62.8469 5.25555C64.2964 5.21316 65.746 5.21316 67.1956 5.1284C68.4035 5.08601 69.5813 5.00125 70.7893 4.95886C71.3932 4.91648 71.9972 4.91648 72.571 4.8741C73.93 4.74695 75.2889 4.61979 76.6479 4.49264C76.5573 4.66218 76.5573 4.91648 76.5875 5.08601C76.6177 5.29793 76.7083 5.46746 76.8593 5.55223C76.9801 5.637 77.1613 5.72176 77.2821 5.637C77.5841 5.46746 77.8861 5.29793 78.1578 5.1284C78.1578 5.1284 78.1578 5.1284 78.1276 5.1284C78.1578 5.1284 78.1578 5.08601 78.188 5.08601C78.2182 5.08601 78.2484 5.04363 78.2484 5.04363H78.2182C78.3692 4.95886 78.5202 4.8741 78.7014 4.74695C78.8524 4.66218 79.0336 4.53503 79.1846 4.45026C79.3658 4.32311 79.5168 4.19596 79.698 4.06881C79.8792 3.94166 80 3.60259 80 3.30591C80 3.13637 79.9698 3.00922 79.9094 2.83969C79.849 2.67016 79.698 2.45824 79.547 2.41586C79.396 2.37347 79.245 2.33109 79.094 2.33109C79.0638 2.33109 79.0336 2.33109 79.0034 2.33109C78.9128 2.33109 78.792 2.33109 78.7014 2.37347C78.4598 2.41586 78.2484 2.45824 78.0069 2.45824C77.8257 2.45824 77.6445 2.50062 77.4331 2.50062C76.9197 2.54301 76.4365 2.58539 75.9231 2.67016C75.8023 2.67016 75.6513 2.71254 75.5305 2.71254C75.5909 2.62777 75.6211 2.54301 75.6211 2.45824C75.6513 2.37347 75.6513 2.28871 75.6513 2.20394C75.6513 2.16156 75.6513 2.07679 75.6815 2.03441C75.6815 1.94964 75.6815 1.86487 75.6513 1.82249C75.6513 1.82249 75.6815 1.82249 75.6815 1.7801C75.7721 1.69534 75.8627 1.61057 75.9231 1.44104C75.9835 1.31389 76.0137 1.14435 76.0137 0.974819C76.0137 0.805285 75.9835 0.678135 75.9231 0.508601C75.8929 0.466218 75.8627 0.381451 75.8325 0.339068C75.7419 0.211917 75.6513 0.169534 75.5607 0.12715C75.3795 0.0423834 75.1681 0 74.9567 0C74.7755 0 74.6245 0 74.4434 0C74.2018 0 73.9602 0 73.7186 0C73.3864 0 73.024 0 72.6918 0C71.7858 0 70.8798 0 69.9739 0C69.1283 0 68.2525 0 67.4069 0C66.6218 0 65.8668 0 65.0816 0C61.9711 0 58.8908 0.0423834 55.7803 0.0847669C53.4549 0.12715 51.1296 0.169534 48.8043 0.169534C47.7775 0.169534 46.7205 0.211917 45.6938 0.254301C43.3684 0.339068 41.0431 0.381451 38.7177 0.466218C38.0534 0.466218 37.389 0.508601 36.7246 0.508601C36.332 0.508601 35.9696 0.550985 35.577 0.550985C33.2819 0.678135 30.9868 0.805285 28.6916 0.932436C27.997 0.974819 27.3025 1.0172 26.5777 1.05959C26.1851 1.05959 25.7925 1.10197 25.3999 1.14435C23.1048 1.31389 20.8398 1.48342 18.5447 1.65295C17.3669 1.73772 16.1892 1.82249 15.0114 1.94964C12.9881 2.11917 10.9647 2.28871 8.97158 2.50062C7.22002 2.67016 5.46847 2.79731 3.71692 2.92446C3.44513 2.96684 3.17334 2.96684 2.87135 3.00922C2.41836 3.05161 1.96537 3.05161 1.51238 3.09399C1.11979 3.26352 0.697006 3.26352 0.304417 3.26352C0.274218 3.09399 0.153421 2.96684 0.0628236 3.00922C-0.208969 3.00922 -0.450562 3.05161 -0.722355 3.09399C-0.843151 3.13637 -0.963948 3.22114 -0.994147 3.39068C-1.02435 3.60259 -0.933749 3.81451 -0.812952 3.85689C-0.692155 3.89928 -0.571359 3.94166 -0.450562 3.98404C-0.329765 4.02643 -0.239168 4.02643 -0.118371 4.02643C0.18362 4.06881 0.455413 4.06881 0.757404 4.06881ZM71.4234 2.71254C71.7858 2.71254 72.1784 2.71254 72.5408 2.71254C72.571 2.83969 72.6314 2.92446 72.6918 3.00922C72.5408 3.00922 72.3898 3.05161 72.269 3.05161C71.9972 3.05161 71.7254 3.09399 71.4536 3.09399C70.2457 3.13637 69.0679 3.22114 67.8599 3.26352C67.3163 3.30591 66.7728 3.34829 66.2292 3.34829C65.3836 3.34829 64.5078 3.39068 63.6623 3.39068C61.6993 3.43306 59.7666 3.47544 57.8036 3.51783C53.9985 3.60259 50.2236 3.68736 46.4185 3.77213C43.7006 3.81451 40.9827 3.94166 38.2648 4.06881C34.1879 4.23834 30.0808 4.36549 26.0039 4.53503C25.1885 4.57741 24.3731 4.61979 23.5578 4.70456C21.2324 4.8741 18.9071 5.00125 16.5818 5.17078C14.3168 5.34031 12.0217 5.46746 9.75675 5.637C9.54536 5.637 9.33397 5.67938 9.12257 5.67938C9.72655 5.59461 10.3607 5.55223 10.9647 5.46746C13.1089 5.25555 15.253 5.00125 17.3971 4.78933C18.1521 4.70456 18.9071 4.6198 19.6319 4.53503C20.0245 4.49264 20.4171 4.45026 20.7794 4.45026C23.0444 4.28073 25.2791 4.06881 27.5139 3.89928C27.9366 3.85689 28.3896 3.81451 28.8124 3.77213C29.4466 3.72974 30.0808 3.68736 30.6848 3.68736C32.9799 3.56021 35.275 3.43306 37.5702 3.30591C38.0836 3.26352 38.5969 3.26352 39.0801 3.22114C39.2009 3.22114 39.3519 3.22114 39.4727 3.22114C39.8351 3.22114 40.1975 3.22114 40.5297 3.17876C42.8248 3.09399 45.1502 3.05161 47.4453 2.96684C48.5023 2.92446 49.5592 2.88207 50.6162 2.88207C54.0287 2.83969 57.4714 2.79731 60.8839 2.75492C64.4474 2.75492 67.9505 2.71254 71.4234 2.71254Z" fill="white"/>
<path d="M5.28152 9.99963C5.37281 9.99963 5.44682 9.89303 5.44682 9.76153C5.44682 9.63004 5.37281 9.52344 5.28152 9.52344C5.19022 9.52344 5.11621 9.63004 5.11621 9.76153C5.11621 9.89303 5.19022 9.99963 5.28152 9.99963Z" fill="white"/>
</g>
<defs>
<clipPath id="clip0_463_360">
<rect width="81" height="10" fill="white"/>
</clipPath>
</defs>
</svg>
